<svg width="200" height="60" viewBox="0 0 200 60" fill="none" xmlns="http://www.w3.org/2000/svg">
  <!-- Background circle -->
  <circle cx="30" cy="30" r="25" fill="#00E0B8" opacity="0.2"/>
  
  <!-- Glass icon -->
  <path d="M20 15 L20 35 L25 40 L35 40 L40 35 L40 15 L20 15 Z" fill="#00E0B8"/>
  <path d="M22 17 L22 33 L25 36 L35 36 L38 33 L38 17 L22 17 Z" fill="#0D0D0D"/>
  
  <!-- Liquid in glass -->
  <path d="M24 25 L24 33 L25 34 L35 34 L36 33 L36 25 L24 25 Z" fill="#FF3366"/>
  
  <!-- Bubbles -->
  <circle cx="28" cy="28" r="1" fill="#F5F5F5" opacity="0.8"/>
  <circle cx="32" cy="26" r="0.8" fill="#F5F5F5" opacity="0.6"/>
  <circle cx="30" cy="30" r="0.6" fill="#F5F5F5" opacity="0.7"/>
  
  <!-- Text -->
  <text x="60" y="25" font-family="Montserrat, sans-serif" font-size="18" font-weight="700" fill="#F5F5F5">LiquorOS</text>
  <text x="60" y="45" font-family="Lato, sans-serif" font-size="12" font-weight="400" fill="#B0B0B0">Premium Drinks</text>
</svg>
